<svg width="155" height="47" viewBox="0 0 155 47" fill="none" xmlns="http://www.w3.org/2000/svg">
<path fill-rule="evenodd" clip-rule="evenodd" d="M15.9603 9.13624L38.7914 -0.000138585L34.337 9.8636L37.1576 12.8717L39.0604 14.8563C34.337 14.8563 29.9774 16.5618 26.5668 20.0582C23.4392 23.2646 21.0931 30.5046 22.5453 34.626C22.0509 34.0892 19.3262 31.0971 18.7307 30.5046L15.9328 27.5749L12.6535 28.8609C13.0607 30.2722 14.2185 31.6367 14.5491 33.6647C15.4686 33.909 15.8968 34.8046 15.5518 35.6686L18.3409 39.4502L14.6036 41.2082L13.6832 36.5476C12.7306 36.4828 12.0762 34.8031 13.0933 33.9151C12.8079 32.0439 11.9079 30.6899 11.4449 29.3796L11.3666 29.4023L5.88259 31.5793L15.9603 9.13624Z" fill="url(#paint0_linear_8197_326)"/>
<circle cx="38.5245" cy="31.515" r="15.4418" fill="url(#paint1_linear_8197_326)"/>
<path d="M44.964 36.1719C44.6511 37.1776 44.0701 37.4905 42.5951 37.4905C41.0306 37.4905 38.9969 37.4011 37.142 37.4011C35.8904 37.4011 34.7507 37.4235 33.2756 37.4681L33.1639 37.1553C34.1472 36.0378 36.1363 29.1321 37.0302 23.7013L34.7507 22.4722L34.7953 22.2263C36.0245 22.0699 38.7511 21.9134 40.5837 21.8911L40.9859 22.0922C40.606 26.4502 38.4158 34.4734 37.0079 36.9094H38.7958C39.5109 36.9094 40.2037 36.7753 40.7848 36.4848C42.2598 35.7696 43.8242 33.87 45.3663 31.2552H45.8356C45.5227 33.6465 45.2546 35.2109 44.964 36.1719Z" fill="white"/>
<path d="M73.9689 37.7237C73.9689 40.9954 70.9016 42.3757 67.6298 42.3757C63.2845 42.3757 60.4472 39.743 60.4472 35.3976C60.4472 31.1545 63.1822 28.3684 67.4253 28.3684C71.5406 28.3684 74.1478 30.7967 74.1478 34.912C74.1478 35.2954 74.1222 35.6532 74.0967 36.0878H63.8468C64.0257 38.516 65.2015 40.6632 67.6298 40.6632C69.5213 40.6632 70.646 39.6152 70.646 37.7237H73.9689ZM67.4253 30.081C65.0993 30.081 64.0768 32.0747 63.8724 34.4008H70.9016C70.9016 31.9214 69.9047 30.081 67.4253 30.081ZM85.6531 31.359C88.9505 32.2537 91.4299 33.4294 91.4299 36.7012C91.4299 40.5353 88.0303 42.4013 84.1706 42.4013C79.723 42.4013 76.7836 40.2797 76.7836 36.3689V35.8833H80.3365C80.3365 38.5416 81.589 40.2797 84.2729 40.2797C86.2155 40.2797 87.7491 39.2062 87.7491 37.2891C87.7491 34.912 85.2953 34.6052 82.8926 33.9918C79.6464 33.1738 77.167 31.998 77.1925 28.7518C77.2181 25.1478 80.541 23.2818 84.1706 23.2818C88.0559 23.2818 91.1487 25.0711 91.1487 28.3684V28.9052H87.6213C87.6213 26.7325 86.3433 25.3522 84.1451 25.3522C82.3814 25.3522 80.8477 26.4258 80.8222 28.1895C80.7966 30.5411 83.276 30.7456 85.6531 31.359ZM102.557 41.8134C101.893 42.1201 100.819 42.3246 99.8224 42.3246C96.8318 42.3246 95.6304 41.0977 95.6304 38.1326V30.311H93.7645V28.624H95.6304V26.1957L98.9022 25.3778V28.624H102.148V30.311H98.9022V37.647C98.9022 39.3084 98.9533 40.2286 100.589 40.3309C101.126 40.3564 101.918 40.3053 102.557 40.1264V41.8134ZM115.625 42.1201L115.216 39.9219C114.679 41.2255 112.915 42.3757 110.819 42.3757C106.96 42.3757 105.145 39.8708 105.145 35.9855V28.624H108.442V35.8066C108.442 38.3882 109.337 40.1519 111.765 40.1519C114.066 40.1519 115.216 38.2604 115.216 35.96V28.624H118.513V42.1201H115.625ZM133.18 42.1201L132.771 39.8963C131.979 41.2511 130.292 42.3757 128.017 42.3757C124.029 42.3757 121.703 39.4107 121.703 35.3721C121.703 31.4868 124.183 28.3684 128.042 28.3684C130.241 28.3684 131.902 29.3142 132.771 30.6178V22.515H136.068V42.1201H133.18ZM125.103 35.3209C125.103 37.9793 126.304 40.382 128.937 40.382C131.519 40.382 132.771 37.9281 132.771 35.3209C132.771 32.7137 131.519 30.2855 128.937 30.2855C126.33 30.2855 125.103 32.7137 125.103 35.3209ZM149.503 42.1201L148.941 40.0497C148.276 41.43 146.589 42.3757 144.161 42.3757C141.349 42.3757 139.304 41.1232 139.304 38.4649C139.304 36.9824 140.02 35.9344 141.196 35.2187C142.525 34.4008 144.161 34.1707 146.768 34.1707C147.509 34.1707 148.276 34.1963 148.915 34.2218V33.046C148.915 31.2057 147.918 30.081 146.103 30.081C144.314 30.081 143.266 31.0012 143.266 32.7904H140.046V32.5093C140.046 29.9787 142.269 28.3684 146.103 28.3684C149.529 28.3684 152.212 29.9787 152.212 33.4039V42.1201H149.503ZM142.678 38.286C142.678 39.6663 143.65 40.4842 145.337 40.4842C147.535 40.4842 148.915 38.9506 148.915 36.7524V35.8322H147.842C146.027 35.8322 144.34 35.96 143.445 36.6757C142.959 37.0591 142.678 37.5703 142.678 38.286Z" fill="#131F34"/>
<defs>
<linearGradient id="paint0_linear_8197_326" x1="35.341" y1="8.7555" x2="-2.22871" y2="39.0819" gradientUnits="userSpaceOnUse">
<stop stop-color="#FFA500"/>
<stop offset="1" stop-color="#FE3F10"/>
</linearGradient>
<linearGradient id="paint1_linear_8197_326" x1="43.6938" y1="16.0732" x2="33.3553" y2="46.9568" gradientUnits="userSpaceOnUse">
<stop stop-color="#1C43FE"/>
<stop offset="1" stop-color="#1334B0"/>
</linearGradient>
</defs>
</svg>
