<svg width="52" height="52" viewBox="0 0 52 52" fill="none" xmlns="http://www.w3.org/2000/svg">
<path d="M45.5 21.6667C45.5 36.8333 26 49.8333 26 49.8333C26 49.8333 6.5 36.8333 6.5 21.6667C6.5 16.4949 8.55446 11.535 12.2114 7.87808C15.8684 4.22112 20.8283 2.16666 26 2.16666C31.1717 2.16666 36.1316 4.22112 39.7886 7.87808C43.4455 11.535 45.5 16.4949 45.5 21.6667Z" stroke="white" stroke-width="2" stroke-linecap="round" stroke-linejoin="round"/>
<path d="M26 28.1667C29.5899 28.1667 32.5 25.2565 32.5 21.6667C32.5 18.0768 29.5899 15.1667 26 15.1667C22.4101 15.1667 19.5 18.0768 19.5 21.6667C19.5 25.2565 22.4101 28.1667 26 28.1667Z" stroke="white" stroke-width="2" stroke-linecap="round" stroke-linejoin="round"/>
</svg>
