<svg width="52" height="52" viewBox="0 0 52 52" fill="none" xmlns="http://www.w3.org/2000/svg">
<path d="M32.6068 10.8334C34.7231 11.2462 36.668 12.2812 38.1926 13.8059C39.7173 15.3305 40.7522 17.2754 41.1651 19.3917M32.6068 2.16669C37.0036 2.65513 41.1036 4.62407 44.2337 7.7502C47.3637 10.8763 49.3378 14.9739 49.8318 19.37M47.6651 36.66V43.16C47.6676 43.7634 47.544 44.3607 47.3022 44.9136C47.0605 45.4665 46.706 45.9628 46.2613 46.3707C45.8167 46.7787 45.2917 47.0892 44.7201 47.2825C44.1485 47.4759 43.5428 47.5477 42.9418 47.4934C36.2746 46.7689 29.8703 44.4907 24.2435 40.8417C19.0084 37.5151 14.57 33.0767 11.2435 27.8417C7.58176 22.1893 5.303 15.7538 4.5918 9.05669C4.53766 8.45753 4.60887 7.85367 4.80089 7.28354C4.99291 6.71341 5.30154 6.18951 5.70713 5.7452C6.11272 5.30088 6.60638 4.94589 7.15669 4.70282C7.70699 4.45975 8.30188 4.33392 8.90347 4.33335H15.4035C16.455 4.323 17.4744 4.69536 18.2716 5.38101C19.0689 6.06666 19.5896 7.01882 19.7368 8.06002C20.0112 10.1402 20.5199 12.1826 21.2535 14.1484C21.545 14.9239 21.6081 15.7667 21.4353 16.5769C21.2625 17.3872 20.861 18.1309 20.2785 18.72L17.5268 21.4717C20.6112 26.896 25.1025 31.3873 30.5268 34.4717L33.2785 31.72C33.8676 31.1375 34.6113 30.736 35.4216 30.5632C36.2318 30.3904 37.0746 30.4535 37.8501 30.745C39.8159 31.4785 41.8583 31.9873 43.9385 32.2617C44.991 32.4102 45.9522 32.9403 46.6393 33.7513C47.3264 34.5622 47.6915 35.5974 47.6651 36.66Z" stroke="white" stroke-width="2" stroke-linecap="round" stroke-linejoin="round"/>
</svg>
