<svg width="52" height="52" viewBox="0 0 52 52" fill="none" xmlns="http://www.w3.org/2000/svg">
<path d="M13 19.5V4.33334H39V19.5" stroke="white" stroke-width="2" stroke-linecap="round" stroke-linejoin="round"/>
<path d="M12.9987 39H8.66536C7.51609 39 6.41389 38.5435 5.60123 37.7308C4.78858 36.9181 4.33203 35.8159 4.33203 34.6667V23.8333C4.33203 22.6841 4.78858 21.5819 5.60123 20.7692C6.41389 19.9565 7.51609 19.5 8.66536 19.5H43.332C44.4813 19.5 45.5835 19.9565 46.3962 20.7692C47.2088 21.5819 47.6654 22.6841 47.6654 23.8333V34.6667C47.6654 35.8159 47.2088 36.9181 46.3962 37.7308C45.5835 38.5435 44.4813 39 43.332 39H38.9987" stroke="white" stroke-width="2" stroke-linecap="round" stroke-linejoin="round"/>
<path d="M39 30.3333H13V47.6667H39V30.3333Z" stroke="white" stroke-width="2" stroke-linecap="round" stroke-linejoin="round"/>
</svg>
